<svg width="9" height="9" viewBox="0 0 9 9" fill="none" xmlns="http://www.w3.org/2000/svg">
<g clip-path="url(#clip0_1_3149)">
<path d="M7.11614 1.66528C6.99568 1.66528 6.89764 1.76332 6.89764 1.88378C6.89764 2.00424 6.99568 2.10228 7.11614 2.10228C7.23662 2.10228 7.33464 2.00426 7.33464 1.88378C7.33464 1.7633 7.23662 1.66528 7.11614 1.66528Z" fill="#00BDD3"/>
<path d="M4.49954 2.56299C3.43146 2.56299 2.5625 3.43195 2.5625 4.50003C2.5625 5.56811 3.43146 6.43708 4.49954 6.43708C5.56764 6.43708 6.4366 5.56813 6.4366 4.50004C6.4366 3.43196 5.56764 2.56299 4.49954 2.56299Z" fill="#00BDD3"/>
<path d="M6.53279 0H2.46721C1.10679 0 0 1.10679 0 2.46723V6.53279C0 7.89323 1.10679 9 2.46721 9H6.53279C7.89323 9 9 7.89321 9 6.53279V2.46723C9 1.10679 7.89323 0 6.53279 0ZM4.5 6.96853C3.13884 6.96853 2.03149 5.86116 2.03149 4.5C2.03149 3.13884 3.13886 2.0315 4.5 2.0315C5.86114 2.0315 6.96853 3.13886 6.96853 4.5C6.96853 5.86114 5.86114 6.96853 4.5 6.96853ZM7.11617 2.63384C6.70263 2.63384 6.36618 2.29739 6.36618 1.88385C6.36618 1.4703 6.70263 1.13384 7.11617 1.13384C7.52971 1.13384 7.86616 1.47029 7.86616 1.88383C7.86616 2.29737 7.52971 2.63384 7.11617 2.63384Z" fill="#00BDD3"/>
</g>
<defs>
<clipPath id="clip0_1_3149">
<rect width="9" height="9" fill="white"/>
</clipPath>
</defs>
</svg>
