<svg width="11" height="11" viewBox="0 0 11 11" fill="none" xmlns="http://www.w3.org/2000/svg">
<g clip-path="url(#clip0_1_3134)">
<path d="M10.7006 8.07289L9.16551 6.53781C8.61727 5.98956 7.68525 6.20888 7.46596 6.92158C7.30148 7.41502 6.75324 7.68914 6.25982 7.57947C5.16333 7.30535 3.68307 5.87992 3.40895 4.7286C3.24448 4.23516 3.57343 3.68692 4.06684 3.52247C4.77956 3.30317 4.99886 2.37115 4.45062 1.82291L2.91553 0.287828C2.47694 -0.0959427 1.81904 -0.0959427 1.43527 0.287828L0.393611 1.32949C-0.648053 2.42598 0.50326 5.33167 3.08001 7.90842C5.65675 10.4852 8.56244 11.6913 9.65893 10.5948L10.7006 9.55315C11.0844 9.11455 11.0844 8.45666 10.7006 8.07289Z" fill="#00BDD3"/>
</g>
<defs>
<clipPath id="clip0_1_3134">
<rect width="11" height="11" fill="white"/>
</clipPath>
</defs>
</svg>
