<svg width="11" height="11" viewBox="0 0 11 11" fill="none" xmlns="http://www.w3.org/2000/svg">
<g id="viber 1">
<g id="_x31_2.Viber">
<path id="Icon_36_" d="M6.37998 1.1001H4.61998C2.92598 1.1001 1.53998 2.4861 1.53998 4.1801V5.5001C1.53998 6.6881 2.23298 7.7771 3.29998 8.2831V9.7571C3.29998 9.8891 3.46498 9.9551 3.55298 9.8561L4.82898 8.5801H6.37998C8.07398 8.5801 9.45998 7.1941 9.45998 5.5001V4.1801C9.45998 2.4861 8.07398 1.1001 6.37998 1.1001ZM7.53498 6.8751L7.08398 7.3151C6.61098 7.7771 5.38998 7.2491 4.31198 6.1491C3.23398 5.0491 2.76098 3.8171 3.21198 3.3551L3.65198 2.9151C3.81698 2.7501 4.09198 2.7611 4.27898 2.9261L4.91698 3.5861C5.14798 3.8171 5.04898 4.2131 4.75198 4.3011C4.54298 4.3671 4.39998 4.5981 4.46598 4.8071C4.57598 5.2911 5.19198 5.9071 5.65398 6.0281C5.86298 6.0721 6.09398 5.9621 6.17098 5.7531C6.26998 5.4561 6.66598 5.3681 6.88598 5.5991L7.52398 6.2591C7.69998 6.4131 7.69998 6.6881 7.53498 6.8751ZM5.89598 3.1901C5.85198 3.1901 5.80798 3.1901 5.76398 3.2011C5.68698 3.2121 5.60998 3.1461 5.59898 3.0691C5.58798 2.9921 5.65398 2.9151 5.73098 2.9041C5.78598 2.8931 5.84098 2.8931 5.89598 2.8931C6.69898 2.8931 7.35898 3.5531 7.35898 4.3561C7.35898 4.4111 7.35898 4.4661 7.34798 4.5211C7.33698 4.5981 7.25998 4.6641 7.18298 4.6531C7.10598 4.6421 7.03998 4.5651 7.05098 4.4881C7.05098 4.4441 7.06198 4.4001 7.06198 4.3561C7.07298 3.7181 6.54498 3.1901 5.89598 3.1901ZM6.77598 4.3671C6.77598 4.4441 6.70998 4.5101 6.63298 4.5101C6.55598 4.5101 6.48998 4.4441 6.48998 4.3671C6.48998 4.0481 6.22598 3.7841 5.90698 3.7841C5.82998 3.7841 5.76398 3.7181 5.76398 3.6411C5.76398 3.5641 5.82998 3.4981 5.90698 3.4981C6.37998 3.4871 6.77598 3.8831 6.77598 4.3671ZM7.89798 4.8401C7.87598 4.9171 7.79898 4.9721 7.71098 4.9501C7.63398 4.9281 7.58998 4.8511 7.61198 4.7741C7.64498 4.6421 7.65598 4.5101 7.65598 4.3671C7.65598 3.3991 6.86398 2.6071 5.89598 2.6071C5.85198 2.6071 5.80798 2.6071 5.76398 2.6071C5.68698 2.6071 5.60998 2.5521 5.60998 2.4751C5.60998 2.3981 5.66498 2.3211 5.74198 2.3211C5.79698 2.3211 5.85198 2.3101 5.89598 2.3101C7.02898 2.3101 7.95298 3.2341 7.95298 4.3671C7.95298 4.5211 7.93098 4.6861 7.89798 4.8401Z" fill="#00BDD3"/>
</g>
</g>
</svg>
